<?xml version="1.0" encoding="UTF-8" standalone="no"?>
<!DOCTYPE svg PUBLIC "-//W3C//DTD SVG 1.1//EN" "http://www.w3.org/Graphics/SVG/1.1/DTD/svg11.dtd">
<!-- Generated by Microsoft Visio, SVG Export rich_picture_visio_svg.svg Page-1 -->
<svg xmlns="http://www.w3.org/2000/svg" xmlns:xlink="http://www.w3.org/1999/xlink" xmlns:ev="http://www.w3.org/2001/xml-events"
		xmlns:v="http://schemas.microsoft.com/visio/2003/SVGExtensions/" width="11.6929in" height="8.26772in"
		viewBox="0 0 841.89 595.276" xml:space="preserve" color-interpolation-filters="sRGB" class="st13">
	<v:documentProperties v:langID="2057" v:metric="true" v:viewMarkup="false">
		<v:userDefs>
			<v:ud v:nameU="msvNoAutoConnect" v:val="VT0(1):26"/>
		</v:userDefs>
	</v:documentProperties>

	<style type="text/css">
	<![CDATA[
		.st1 {fill:#ffffff;stroke:#000000;stroke-linecap:round;stroke-linejoin:round;stroke-width:0.75}
		.st2 {fill:#000000;font-family:Calibri;font-size:1.00001em;font-stretch:semi-expanded}
		.st3 {fill:#ffffff}
		.st4 {stroke:#000000;stroke-linecap:round;stroke-linejoin:round;stroke-width:0.75}
		.st5 {fill:none;stroke:none;stroke-linecap:round;stroke-linejoin:round;stroke-width:0.75}
		.st6 {fill:#000000;font-family:Calibri;font-size:1.00001em;font-weight:bold}
		.st7 {fill:#000000;font-family:Calibri;font-size:0.833336em}
		.st8 {font-size:1em}
		.st9 {fill:#000000}
		.st10 {fill:#000000;stroke:#000000;stroke-linecap:round;stroke-linejoin:round;stroke-width:0.75}
		.st11 {fill:#ffffff;stroke:none;stroke-linecap:butt;stroke-width:7.2}
		.st12 {fill:#000000;font-family:Calibri;font-size:0.666664em}
		.st13 {fill:none;fill-rule:evenodd;font-size:12px;overflow:visible;stroke-linecap:square;stroke-miterlimit:3}
	]]>
	</style>

	<defs id="Patterns_And_Gradients">
		<linearGradient id="grad0-11" x1="0" y1="0" x2="1" y2="0" gradientTransform="rotate(90 0.5 0.5)">
			<stop offset="0.01" stop-color="#ffffff" stop-opacity="1"/>
			<stop offset="0.5" stop-color="#fefefe" stop-opacity="1"/>
			<stop offset="1" stop-color="#ffffff" stop-opacity="1"/>
		</linearGradient>
		<linearGradient id="grad0-15" x1="0" y1="0" x2="1" y2="0" gradientTransform="rotate(270 0.5 0.5)">
			<stop offset="0" stop-color="#fefefe" stop-opacity="1"/>
			<stop offset="1" stop-color="#ffffff" stop-opacity="1"/>
		</linearGradient>
	</defs>
	<g v:mID="0" v:index="1" v:groupContext="foregroundPage">
		<title>Page-1</title>
		<v:pageProperties v:drawingScale="0.0393701" v:pageScale="0.0393701" v:drawingUnits="24" v:shadowOffsetX="8.50394"
				v:shadowOffsetY="-8.50394"/>
		<v:layer v:name="Container" v:index="0"/>
		<v:layer v:name="Flowchart" v:index="1"/>
		<v:layer v:name="Callout" v:index="2"/>
		<v:layer v:name="Connector" v:index="3"/>
		<v:layer v:name="Humans" v:index="4"/>
		<g id="group1-1" transform="translate(18,-18)" v:mID="1" v:groupContext="group" v:layerMember="0">
			<v:userDefs>
				<v:ud v:nameU="msvShapeCategories" v:prompt="" v:val="VT4(ContainerStyleDefaults)"/>
				<v:ud v:nameU="msvStructureType" v:prompt="" v:val="VT4(Container)"/>
				<v:ud v:nameU="msvSDContainerMargin" v:prompt="" v:val="VT0(0.11811023622047):24"/>
				<v:ud v:nameU="msvSDContainerResize" v:prompt="" v:val="VT0(1):26"/>
				<v:ud v:nameU="msvSDContainerLocked" v:prompt="" v:val="VT0(0):5"/>
				<v:ud v:nameU="msvSDContainerNoHighlight" v:prompt="" v:val="VT0(0):5"/>
				<v:ud v:nameU="msvSDContainerNoRibbon" v:prompt="" v:val="VT0(0):5"/>
				<v:ud v:nameU="msvSDContainerStyle" v:prompt="" v:val="VT0(1):26"/>
				<v:ud v:nameU="msvSDContainerStyleCount" v:prompt="" v:val="VT0(14):26"/>
				<v:ud v:nameU="msvSDContainerRequiredCategories" v:prompt="" v:val="VT0(0):26"/>
				<v:ud v:nameU="msvSDContainerExcludedCategories" v:prompt="" v:val="VT4(DoNotContain)"/>
				<v:ud v:nameU="msvSDHeadingStyle" v:prompt="" v:val="VT0(1):26"/>
				<v:ud v:nameU="msvSDHeadingStyleCount" v:prompt="" v:val="VT0(4):26"/>
				<v:ud v:nameU="HeadingSide" v:prompt="" v:val="VT0(0):26"/>
				<v:ud v:nameU="HeadingSpan" v:prompt="" v:val="VT0(0):26"/>
				<v:ud v:nameU="HeadingAlign" v:prompt="" v:val="VT0(0):26"/>
				<v:ud v:nameU="RTL" v:prompt="" v:val="VT0(0):5"/>
				<v:ud v:nameU="FnForceContrast" v:prompt="" v:val="VT5(#ffffff)"/>
				<v:ud v:nameU="BaseColor" v:prompt="" v:val="VT0(1):26"/>
				<v:ud v:nameU="HColor1" v:prompt="" v:val="VT5(#ffffff)"/>
				<v:ud v:nameU="HColor2" v:prompt="" v:val="VT5(#fefefe)"/>
				<v:ud v:nameU="HColor3" v:prompt="" v:val="VT5(#e9e9e9)"/>
				<v:ud v:nameU="HColor4" v:prompt="" v:val="VT5(#efefef)"/>
				<v:ud v:nameU="BColor1" v:prompt="" v:val="VT5(#ffffff)"/>
				<v:ud v:nameU="BColor2" v:prompt="" v:val="VT5(#ffffff)"/>
				<v:ud v:nameU="LineColor" v:prompt="" v:val="VT5(#d5d5d5)"/>
				<v:ud v:nameU="visVersion" v:prompt="" v:val="VT0(15):26"/>
				<v:ud v:nameU="Embellishment" v:prompt="" v:val="VT0(2):26"/>
			</v:userDefs>
			<title>Plain</title>
			<g id="group2-2" v:mID="2" v:groupContext="group" v:layerMember="0">
				<v:userDefs>
					<v:ud v:nameU="msvStructureType" v:prompt="" v:val="VT0(0):26"/>
					<v:ud v:nameU="CStyle" v:prompt="" v:val="VT0(1):26"/>
					<v:ud v:nameU="HSide" v:prompt="" v:val="VT0(0):26"/>
					<v:ud v:nameU="HSpan" v:prompt="" v:val="VT0(0):26"/>
					<v:ud v:nameU="HAlign" v:prompt="" v:val="VT0(0):26"/>
					<v:ud v:nameU="HorzAlign" v:prompt="" v:val="VT0(0):26"/>
					<v:ud v:nameU="SquareCorners" v:prompt="" v:val="VT0(0):26"/>
					<v:ud v:nameU="Corner6" v:prompt="" v:val="VT0(0.19685039370079):24"/>
					<v:ud v:nameU="FillForegndIn" v:prompt="" v:val="VT0(1):26"/>
					<v:ud v:nameU="FillBkgndIn" v:prompt="" v:val="VT0(0):26"/>
					<v:ud v:nameU="FillPatternIn" v:prompt="" v:val="VT0(1):26"/>
					<v:ud v:nameU="BaseColor" v:prompt="" v:val="VT0(1):26"/>
					<v:ud v:nameU="BackFillColor" v:prompt="" v:val="VT5(#96afcf)"/>
					<v:ud v:nameU="BackLineColor" v:prompt="" v:val="VT5(#1f477d)"/>
					<v:ud v:nameU="DarkerColor" v:prompt="" v:val="VT5(#1f477d)"/>
				</v:userDefs>
				<title>Sheet.2</title>
				<g id="shape3-3" v:mID="3" v:groupContext="shape" v:layerMember="0" transform="translate(2.83465,2.83465)">
					<title>Sheet.3</title>
					<v:userDefs>
						<v:ud v:nameU="msvStructureType" v:prompt="" v:val="VT0(0):26"/>
						<v:ud v:nameU="msvThemeColors" v:prompt="" v:val="VT0(0):26"/>
						<v:ud v:nameU="msvThemeEffects" v:prompt="" v:val="VT0(0):26"/>
						<v:ud v:nameU="CStyle" v:prompt="" v:val="VT0(1):26"/>
						<v:ud v:nameU="HSide" v:prompt="" v:val="VT0(0):26"/>
						<v:ud v:nameU="HSpan" v:prompt="" v:val="VT0(0):26"/>
						<v:ud v:nameU="HAlign" v:prompt="" v:val="VT0(0):26"/>
						<v:ud v:nameU="HorzAlign" v:prompt="" v:val="VT0(0):26"/>
						<v:ud v:nameU="SquareCorners" v:prompt="" v:val="VT0(0):26"/>
						<v:ud v:nameU="OffsetX10" v:prompt="" v:val="VT0(0.039370078740157):24"/>
						<v:ud v:nameU="OffsetY10" v:prompt="" v:val="VT0(-0.039370078740157):24"/>
						<v:ud v:nameU="BackFillColor" v:prompt="" v:val="VT5(#96afcf)"/>
						<v:ud v:nameU="BackLineColor" v:prompt="" v:val="VT5(#1f477d)"/>
						<v:ud v:nameU="DarkerColor" v:prompt="" v:val="VT5(#1f477d)"/>
					</v:userDefs>
				</g>
				<g id="shape2-5" v:mID="2" v:groupContext="groupContent" v:layerMember="0">
					<path d="M0 595.28 L405.09 595.28 L810.17 595.28 L810.17 26.5 L405.09 26.5 L0 26.5 L0 595.28 Z" class="st1"/>
				</g>
			</g>
			<g id="group4-7" transform="translate(0,-543.26)" v:mID="4" v:groupContext="group" v:layerMember="0">
				<v:userDefs>
					<v:ud v:nameU="msvStructureType" v:prompt="" v:val="VT4(Heading)"/>
					<v:ud v:nameU="CStyle" v:prompt="" v:val="VT0(1):26"/>
					<v:ud v:nameU="HSide" v:prompt="" v:val="VT0(0):26"/>
					<v:ud v:nameU="HSpan" v:prompt="" v:val="VT0(0):26"/>
					<v:ud v:nameU="HAlign" v:prompt="" v:val="VT0(0):26"/>
					<v:ud v:nameU="Hidden" v:prompt="" v:val="VT0(0):5"/>
					<v:ud v:nameU="HorzAlign" v:prompt="" v:val="VT0(0):26"/>
					<v:ud v:nameU="Rounding" v:prompt="" v:val="VT0(0):1"/>
					<v:ud v:nameU="SquareCorners" v:prompt="" v:val="VT0(3):26"/>
					<v:ud v:nameU="Inset" v:prompt="" v:val="VT0(0):24"/>
					<v:ud v:nameU="InsideRadius" v:prompt="" v:val="VT0(0):24"/>
					<v:ud v:nameU="InsetXInt" v:prompt="" v:val="VT0(0):24"/>
					<v:ud v:nameU="HTxtMargin" v:prompt="" v:val="VT0(0.059055118110236):24"/>
					<v:ud v:nameU="HTxtWidth" v:prompt="" v:val="VT0(2.9527559055118):24"/>
					<v:ud v:nameU="HLeft" v:prompt="" v:val="VT0(0):26"/>
					<v:ud v:nameU="HRight" v:prompt="" v:val="VT0(2.9527559055118):24"/>
					<v:ud v:nameU="SquareCorners7" v:prompt="" v:val="VT0(3):26"/>
					<v:ud v:nameU="Offset" v:prompt="" v:val="VT0(0):26"/>
					<v:ud v:nameU="Rounding8" v:prompt="" v:val="VT0(0.11811023622047):24"/>
					<v:ud v:nameU="InsetX9" v:prompt="" v:val="VT0(0):26"/>
					<v:ud v:nameU="InsetY9" v:prompt="" v:val="VT0(0):26"/>
					<v:ud v:nameU="OffsetY11" v:prompt="" v:val="VT0(0):26"/>
					<v:ud v:nameU="OffsetY12" v:prompt="" v:val="VT0(0):26"/>
					<v:ud v:nameU="Width12" v:prompt="" v:val="VT0(0):26"/>
					<v:ud v:nameU="msvSDContainerHeadingEdge" v:prompt="" v:val="VT4(Bottom)"/>
					<v:ud v:nameU="HLineVisible" v:prompt="" v:val="VT0(0):5"/>
					<v:ud v:nameU="HFillVisible" v:prompt="" v:val="VT0(0):5"/>
					<v:ud v:nameU="FillForegndIn" v:prompt="" v:val="VT5(#ffffff)"/>
					<v:ud v:nameU="FillBkgndIn" v:prompt="" v:val="VT0(1):26"/>
					<v:ud v:nameU="BaseColor" v:prompt="" v:val="VT0(1):26"/>
					<v:ud v:nameU="FillPatternIn" v:prompt="" v:val="VT0(30):26"/>
					<v:ud v:nameU="BackFillColor" v:prompt="" v:val="VT5(#96afcf)"/>
					<v:ud v:nameU="BackLineColor" v:prompt="" v:val="VT5(#1f477d)"/>
					<v:ud v:nameU="BackCharColor" v:prompt="" v:val="VT5(#000000)"/>
					<v:ud v:nameU="DarkerColor" v:prompt="" v:val="VT5(#000000)"/>
					<v:ud v:nameU="HTxtWidth" v:prompt="" v:val="VT0(11.25242150425):1"/>
					<v:ud v:nameU="HRight" v:prompt="" v:val="VT0(11.25242150425):1"/>
				</v:userDefs>
				<title>Sheet.4</title>
				<desc>Web App for the Dyfi Wildlife Centre</desc>
				<g id="shape5-8" v:mID="5" v:groupContext="shape" v:layerMember="0">
					<title>Sheet.5</title>
					<v:userDefs>
						<v:ud v:nameU="msvStructureType" v:prompt="" v:val="VT0(0):26"/>
						<v:ud v:nameU="msvThemeColors" v:prompt="" v:val="VT0(0):26"/>
						<v:ud v:nameU="msvThemeEffects" v:prompt="" v:val="VT0(0):26"/>
						<v:ud v:nameU="CStyle" v:prompt="" v:val="VT0(1):26"/>
						<v:ud v:nameU="Rounding" v:prompt="" v:val="VT0(0):1"/>
						<v:ud v:nameU="SquareCorners" v:prompt="" v:val="VT0(3):26"/>
						<v:ud v:nameU="HLeft" v:prompt="" v:val="VT0(0):26"/>
						<v:ud v:nameU="HRight" v:prompt="" v:val="VT0(2.9527559055118):24"/>
						<v:ud v:nameU="Hidden" v:prompt="" v:val="VT0(0):5"/>
						<v:ud v:nameU="BowHeight7" v:prompt="" v:val="VT0(0.11811023622047):24"/>
						<v:ud v:nameU="Offset7" v:prompt="" v:val="VT0(0.0052083333333333):3"/>
						<v:ud v:nameU="AnchorPt7" v:prompt="" v:val="VT0(0.64439796587927):24"/>
						<v:ud v:nameU="HSide" v:prompt="" v:val="VT0(0):26"/>
						<v:ud v:nameU="HAlign" v:prompt="" v:val="VT0(0):26"/>
						<v:ud v:nameU="HRight" v:prompt="" v:val="VT0(11.25242150425):1"/>
					</v:userDefs>
				</g>
				<g id="shape4-12" v:mID="4" v:groupContext="groupContent" v:layerMember="0">
					<v:textBlock v:margins="rect(4,6,4,6)" v:tabSpace="42.5197"/>
					<v:textRect cx="405.087" cy="582.52" width="810.18" height="25.5118"/>
					<text x="6" y="586.12" class="st2" v:langID="2057"><v:paragraph/><v:tabList/>Web App for the Dyfi Wildlife Centre</text>				</g>
			</g>
		</g>
		<g id="group90-17" transform="translate(221.102,-56.6929)" v:mID="90" v:groupContext="group">
			<title>Sheet.90</title>
			<g id="group88-18" transform="translate(15.2192,-58.6085)" v:mID="88" v:groupContext="group">
				<title>Sheet.88</title>
				<g id="shape83-19" v:mID="83" v:groupContext="shape" v:layerMember="1">
					<title>Person</title>
					<v:userDefs>
						<v:ud v:nameU="visVersion" v:prompt="" v:val="VT0(15):26"/>
						<v:ud v:nameU="ConnGap" v:prompt="" v:val="VT0(0.00012908222537757):24"/>
					</v:userDefs>
					<path d="M13.22 569.58 L3.15 569.58 C2.42 569.58 1.75 569.84 1.22 570.28 C0.85 570.59 0.54 570.98 0.33 571.42
								 C0.12 571.87 0 572.37 0 572.91 L0 585.53 L2.76 585.53 L2.76 595.28 L13.5 595.28 L13.5 585.53 L16.36
								 585.53 L16.36 572.91 C16.36 572.14 16.12 571.43 15.7 570.87 C15.41 570.48 15.04 570.16 14.62 569.93
								 C14.2 569.71 13.72 569.58 13.22 569.58 ZM12.89 563.34 A4.70634 4.91663 -180 1 0 3.48 563.34 A4.70634
								 4.91663 -180 1 0 12.89 563.34 Z" class="st3"/>
					<path d="M13.22 569.58 L3.15 569.58 C2.42 569.58 1.75 569.84 1.22 570.28 C0.85 570.59 0.54 570.98 0.33 571.42
								 C0.12 571.87 0 572.37 0 572.91 L0 585.53 L2.76 585.53 L2.76 595.28 L13.5 595.28 L13.5 585.53 L16.36
								 585.53 L16.36 572.91 C16.36 572.14 16.12 571.43 15.7 570.87 C15.41 570.48 15.04 570.16 14.62 569.93
								 C14.2 569.71 13.72 569.58 13.22 569.58" class="st4"/>
					<path d="M8.18 595.28 L8.18 587.48" class="st4"/>
					<path d="M2.76 585.53 L2.76 578.81" class="st4"/>
					<path d="M13.5 585.53 L13.5 578.81" class="st4"/>
					<path d="M12.89 563.34 A4.70634 4.91663 -180 1 0 3.48 563.34 A4.70634 4.91663 -180 1 0 12.89 563.34"
							class="st4"/>
				</g>
				<g id="shape84-26" v:mID="84" v:groupContext="shape" v:layerMember="1" transform="translate(18.4097,0)">
					<title>Person.84</title>
					<v:userDefs>
						<v:ud v:nameU="visVersion" v:prompt="" v:val="VT0(15):26"/>
						<v:ud v:nameU="ConnGap" v:prompt="" v:val="VT0(0.00012908222537757):24"/>
					</v:userDefs>
					<path d="M13.22 569.58 L3.15 569.58 C2.42 569.58 1.75 569.84 1.22 570.28 C0.85 570.59 0.54 570.98 0.33 571.42
								 C0.12 571.87 0 572.37 0 572.91 L0 585.53 L2.76 585.53 L2.76 595.28 L13.5 595.28 L13.5 585.53 L16.36
								 585.53 L16.36 572.91 C16.36 572.14 16.12 571.43 15.7 570.87 C15.41 570.48 15.04 570.16 14.62 569.93
								 C14.2 569.71 13.72 569.58 13.22 569.58 ZM12.89 563.34 A4.70634 4.91663 -180 1 0 3.48 563.34 A4.70634
								 4.91663 -180 1 0 12.89 563.34 Z" class="st3"/>
					<path d="M13.22 569.58 L3.15 569.58 C2.42 569.58 1.75 569.84 1.22 570.28 C0.85 570.59 0.54 570.98 0.33 571.42
								 C0.12 571.87 0 572.37 0 572.91 L0 585.53 L2.76 585.53 L2.76 595.28 L13.5 595.28 L13.5 585.53 L16.36
								 585.53 L16.36 572.91 C16.36 572.14 16.12 571.43 15.7 570.87 C15.41 570.48 15.04 570.16 14.62 569.93
								 C14.2 569.71 13.72 569.58 13.22 569.58" class="st4"/>
					<path d="M8.18 595.28 L8.18 587.48" class="st4"/>
					<path d="M2.76 585.53 L2.76 578.81" class="st4"/>
					<path d="M13.5 585.53 L13.5 578.81" class="st4"/>
					<path d="M12.89 563.34 A4.70634 4.91663 -180 1 0 3.48 563.34 A4.70634 4.91663 -180 1 0 12.89 563.34"
							class="st4"/>
				</g>
				<g id="shape85-33" v:mID="85" v:groupContext="shape" v:layerMember="1" transform="translate(36.8194,0)">
					<title>Person.85</title>
					<v:userDefs>
						<v:ud v:nameU="visVersion" v:prompt="" v:val="VT0(15):26"/>
						<v:ud v:nameU="ConnGap" v:prompt="" v:val="VT0(0.00012908222537757):24"/>
					</v:userDefs>
					<path d="M13.22 569.58 L3.15 569.58 C2.42 569.58 1.75 569.84 1.22 570.28 C0.85 570.59 0.54 570.98 0.33 571.42
								 C0.12 571.87 0 572.37 0 572.91 L0 585.53 L2.76 585.53 L2.76 595.28 L13.5 595.28 L13.5 585.53 L16.36
								 585.53 L16.36 572.91 C16.36 572.14 16.12 571.43 15.7 570.87 C15.41 570.48 15.04 570.16 14.62 569.93
								 C14.2 569.71 13.72 569.58 13.22 569.58 ZM12.89 563.34 A4.70634 4.91663 -180 1 0 3.48 563.34 A4.70634
								 4.91663 -180 1 0 12.89 563.34 Z" class="st3"/>
					<path d="M13.22 569.58 L3.15 569.58 C2.42 569.58 1.75 569.84 1.22 570.28 C0.85 570.59 0.54 570.98 0.33 571.42
								 C0.12 571.87 0 572.37 0 572.91 L0 585.53 L2.76 585.53 L2.76 595.28 L13.5 595.28 L13.5 585.53 L16.36
								 585.53 L16.36 572.91 C16.36 572.14 16.12 571.43 15.7 570.87 C15.41 570.48 15.04 570.16 14.62 569.93
								 C14.2 569.71 13.72 569.58 13.22 569.58" class="st4"/>
					<path d="M8.18 595.28 L8.18 587.48" class="st4"/>
					<path d="M2.76 585.53 L2.76 578.81" class="st4"/>
					<path d="M13.5 585.53 L13.5 578.81" class="st4"/>
					<path d="M12.89 563.34 A4.70634 4.91663 -180 1 0 3.48 563.34 A4.70634 4.91663 -180 1 0 12.89 563.34"
							class="st4"/>
				</g>
				<g id="shape86-40" v:mID="86" v:groupContext="shape" v:layerMember="1" transform="translate(9.20486,-38.3305)">
					<title>Person.86</title>
					<v:userDefs>
						<v:ud v:nameU="visVersion" v:prompt="" v:val="VT0(15):26"/>
						<v:ud v:nameU="ConnGap" v:prompt="" v:val="VT0(0.00012908222537757):24"/>
					</v:userDefs>
					<path d="M13.22 569.58 L3.15 569.58 C2.42 569.58 1.75 569.84 1.22 570.28 C0.85 570.59 0.54 570.98 0.33 571.42
								 C0.12 571.87 0 572.37 0 572.91 L0 585.53 L2.76 585.53 L2.76 595.28 L13.5 595.28 L13.5 585.53 L16.36
								 585.53 L16.36 572.91 C16.36 572.14 16.12 571.43 15.7 570.87 C15.41 570.48 15.04 570.16 14.62 569.93
								 C14.2 569.71 13.72 569.58 13.22 569.58 ZM12.89 563.34 A4.70634 4.91663 -180 1 0 3.48 563.34 A4.70634
								 4.91663 -180 1 0 12.89 563.34 Z" class="st3"/>
					<path d="M13.22 569.58 L3.15 569.58 C2.42 569.58 1.75 569.84 1.22 570.28 C0.85 570.59 0.54 570.98 0.33 571.42
								 C0.12 571.87 0 572.37 0 572.91 L0 585.53 L2.76 585.53 L2.76 595.28 L13.5 595.28 L13.5 585.53 L16.36
								 585.53 L16.36 572.91 C16.36 572.14 16.12 571.43 15.7 570.87 C15.41 570.48 15.04 570.16 14.62 569.93
								 C14.2 569.71 13.72 569.58 13.22 569.58" class="st4"/>
					<path d="M8.18 595.28 L8.18 587.48" class="st4"/>
					<path d="M2.76 585.53 L2.76 578.81" class="st4"/>
					<path d="M13.5 585.53 L13.5 578.81" class="st4"/>
					<path d="M12.89 563.34 A4.70634 4.91663 -180 1 0 3.48 563.34 A4.70634 4.91663 -180 1 0 12.89 563.34"
							class="st4"/>
				</g>
				<g id="shape87-47" v:mID="87" v:groupContext="shape" v:layerMember="1" transform="translate(32.7284,-38.3305)">
					<title>Person.87</title>
					<v:userDefs>
						<v:ud v:nameU="visVersion" v:prompt="" v:val="VT0(15):26"/>
						<v:ud v:nameU="ConnGap" v:prompt="" v:val="VT0(0.00012908222537757):24"/>
					</v:userDefs>
					<path d="M13.22 569.58 L3.15 569.58 C2.42 569.58 1.75 569.84 1.22 570.28 C0.85 570.59 0.54 570.98 0.33 571.42
								 C0.12 571.87 0 572.37 0 572.91 L0 585.53 L2.76 585.53 L2.76 595.28 L13.5 595.28 L13.5 585.53 L16.36
								 585.53 L16.36 572.91 C16.36 572.14 16.12 571.43 15.7 570.87 C15.41 570.48 15.04 570.16 14.62 569.93
								 C14.2 569.71 13.72 569.58 13.22 569.58 ZM12.89 563.34 A4.70634 4.91663 -180 1 0 3.48 563.34 A4.70634
								 4.91663 -180 1 0 12.89 563.34 Z" class="st3"/>
					<path d="M13.22 569.58 L3.15 569.58 C2.42 569.58 1.75 569.84 1.22 570.28 C0.85 570.59 0.54 570.98 0.33 571.42
								 C0.12 571.87 0 572.37 0 572.91 L0 585.53 L2.76 585.53 L2.76 595.28 L13.5 595.28 L13.5 585.53 L16.36
								 585.53 L16.36 572.91 C16.36 572.14 16.12 571.43 15.7 570.87 C15.41 570.48 15.04 570.16 14.62 569.93
								 C14.2 569.71 13.72 569.58 13.22 569.58" class="st4"/>
					<path d="M8.18 595.28 L8.18 587.48" class="st4"/>
					<path d="M2.76 585.53 L2.76 578.81" class="st4"/>
					<path d="M13.5 585.53 L13.5 578.81" class="st4"/>
					<path d="M12.89 563.34 A4.70634 4.91663 -180 1 0 3.48 563.34 A4.70634 4.91663 -180 1 0 12.89 563.34"
							class="st4"/>
				</g>
			</g>
			<g id="shape89-54" v:mID="89" v:groupContext="shape">
				<title>Sheet.89</title>
				<desc>Visitors</desc>
				<v:textBlock v:margins="rect(4,4,4,4)" v:tabSpace="42.5197"/>
				<v:textRect cx="41.811" cy="569.963" width="83.63" height="50.6252"/>
				<rect x="0" y="544.65" width="83.6221" height="50.6252" class="st5"/>
				<text x="23.09" y="573.56" class="st6" v:langID="2057"><v:paragraph v:horizAlign="1"/><v:tabList/>Visitors</text>			</g>
		</g>
		<g id="shape92-57" v:mID="92" v:groupContext="shape" v:layerMember="2" transform="translate(325.984,-56.6929)">
			<title>Text Callout.92</title>
			<desc>I want to learn more about the centre and its activities</desc>
			<v:userDefs>
				<v:ud v:nameU="BackFillColor" v:prompt="" v:val="VT5(#96afcf)"/>
				<v:ud v:nameU="BackLineColor" v:prompt="" v:val="VT5(#1f477d)"/>
				<v:ud v:nameU="DarkerColor" v:prompt="" v:val="VT5(#000000)"/>
				<v:ud v:nameU="BackCharColor" v:prompt="" v:val="VT5(#000000)"/>
				<v:ud v:nameU="visVersion" v:prompt="" v:val="VT0(15):26"/>
				<v:ud v:nameU="msvStructureType" v:prompt="" v:val="VT4(Callout)"/>
				<v:ud v:nameU="msvSDTargetIntersection" v:prompt=""/>
				<v:ud v:nameU="msvSDCalloutNoHighlight" v:prompt="" v:val="VT0(0):5"/>
				<v:ud v:nameU="msvShapeCategories" v:prompt="" v:val="VT0(0):26"/>
				<v:ud v:nameU="Side" v:prompt="" v:val="VT0(4):26"/>
				<v:ud v:nameU="LeaderEnd" v:prompt="" v:val="VT7(PNT(6.25MM,-6.4MM)):40"/>
				<v:ud v:nameU="WHBoxIntersection" v:prompt="" v:val="VT7(PNT(10.096153846154MM,0MM)):40"/>
				<v:ud v:nameU="msvSDTargetIntersection" v:prompt="" v:val="VT7(PNT(-0.29527558870538,0.69760457920784)):40"/>
				<v:ud v:nameU="Side" v:prompt="" v:val="VT0(3):26"/>
				<v:ud v:nameU="LeaderEnd" v:prompt="" v:val="VT7(PNT(-0.29527558870538,0.69760457920784)):40"/>
				<v:ud v:nameU="WHBoxIntersection" v:prompt="" v:val="VT7(PNT(0,0.6496062992126)):40"/>
			</v:userDefs>
			<v:textBlock v:margins="rect(4,4,4,4)" v:tabSpace="42.5197"/>
			<v:textRect cx="46.063" cy="571.89" width="92.13" height="44.0037"/>
			<path d="M0 548.5 L-21.26 545.05" class="st4"/>
			<text x="4" y="562.89" class="st7" v:langID="2057"><v:paragraph/><v:tabList/>I want to learn more <tspan x="4"
						dy="1.2em" class="st8">about the centre </tspan><tspan x="4" dy="1.2em" class="st8">and its activities</tspan></text>		</g>
		<g id="group15-63" transform="translate(28.3465,-369.017)" v:mID="15" v:groupContext="group">
			<title>Sheet.15</title>
			<g id="shape9-64" v:mID="9" v:groupContext="shape">
				<title>Sheet.9</title>
				<desc>Project manager/Centre contact</desc>
				<v:textBlock v:margins="rect(4,4,4,4)" v:tabSpace="42.5197"/>
				<v:textRect cx="66.545" cy="569.543" width="133.1" height="51.4655"/>
				<rect x="0" y="543.81" width="133.09" height="51.4655" class="st5"/>
				<text x="6.24" y="565.94" class="st6" v:langID="2057"><v:paragraph v:horizAlign="1"/><v:tabList/>Project manager/Centre <tspan
							x="47.96" dy="1.2em" class="st8">contact</tspan></text>			</g>
			<g id="group10-68" transform="translate(0,-57.4849)" v:mID="10" v:groupContext="group" v:layerMember="1">
				<v:userDefs>
					<v:ud v:nameU="visVersion" v:prompt="" v:val="VT0(15):26"/>
					<v:ud v:nameU="ConnGap" v:prompt="" v:val="VT0(0.00012908222537757):24"/>
				</v:userDefs>
				<title>Manager</title>
				<g id="shape11-69" v:mID="11" v:groupContext="shape" v:layerMember="1" transform="translate(-6.71463E-13,-30.2882)">
					<title>Sheet.11</title>
					<path d="M13.44 588.82 A6.71849 6.45729 -180 1 0 0 588.82 A6.71849 6.45729 -180 1 0 13.44 588.82 ZM28.15 588.82
								 A6.71849 6.45729 -180 1 0 14.72 588.82 A6.71849 6.45729 -180 1 0 28.15 588.82 ZM42.87 588.82 A6.71849
								 6.45729 -180 1 0 29.43 588.82 A6.71849 6.45729 -180 1 0 42.87 588.82 ZM57.59 588.82 A6.71849 6.45729
								 -180 1 0 44.15 588.82 A6.71849 6.45729 -180 1 0 57.59 588.82 ZM72.3 588.82 A6.71849 6.45729 -180
								 1 0 58.87 588.82 A6.71849 6.45729 -180 1 0 72.3 588.82 ZM87.02 588.82 A6.71848 6.45729 -180 1 0
								 73.58 588.82 A6.71848 6.45729 -180 1 0 87.02 588.82 Z" class="st9"/>
					<path d="M13.44 588.82 A6.71849 6.45729 -180 1 0 0 588.82 A6.71849 6.45729 -180 1 0 13.44 588.82" class="st4"/>
					<path d="M28.15 588.82 A6.71849 6.45729 -180 1 0 14.72 588.82 A6.71849 6.45729 -180 1 0 28.15 588.82"
							class="st4"/>
					<path d="M42.87 588.82 A6.71849 6.45729 -180 1 0 29.43 588.82 A6.71849 6.45729 -180 1 0 42.87 588.82"
							class="st4"/>
					<path d="M57.59 588.82 A6.71849 6.45729 -180 1 0 44.15 588.82 A6.71849 6.45729 -180 1 0 57.59 588.82"
							class="st4"/>
					<path d="M72.3 588.82 A6.71849 6.45729 -180 1 0 58.87 588.82 A6.71849 6.45729 -180 1 0 72.3 588.82" class="st4"/>
					<path d="M87.02 588.82 A6.71848 6.45729 -180 1 0 73.58 588.82 A6.71848 6.45729 -180 1 0 87.02 588.82"
							class="st4"/>
					<path d="M71.21 576.1 L76.8 583.31" class="st4"/>
					<path d="M65.7 577.4 L65.59 582.36" class="st4"/>
					<path d="M46.73 576.83 L48.24 582.87" class="st4"/>
					<path d="M15.81 576.1 L10.22 583.31" class="st4"/>
					<path d="M21.32 577.4 L21.44 582.36" class="st4"/>
					<path d="M40.29 576.83 L38.78 582.87" class="st4"/>
				</g>
				<g id="shape12-83" v:mID="12" v:groupContext="shape" v:layerMember="1" transform="translate(51.1885,0)">
					<title>Sheet.12</title>
					<path d="M74.81 536 A9.49239 9.12512 -180 1 0 55.82 536 A9.49239 9.12512 -180 1 0 74.81 536 ZM75.48 547.59 L54.93
								 547.59 C53.45 547.59 52.09 548.07 51.01 548.89 C50.25 549.45 49.63 550.18 49.19 551.01 C48.76 551.84
								 48.52 552.77 48.52 553.76 L48.52 577.18 L54.14 577.18 L54.14 595.28 L76.06 595.28 L76.06 577.18
								 L81.9 577.18 L81.9 553.76 C81.9 552.33 81.4 551.03 80.55 549.98 C79.96 549.25 79.21 548.66 78.35
								 548.24 C77.49 547.83 76.51 547.59 75.48 547.59 Z" class="st3"/>
					<path d="M74.81 536 A9.49239 9.12512 -180 1 0 55.82 536 A9.49239 9.12512 -180 1 0 74.81 536" class="st4"/>
					<path d="M75.48 547.59 L54.93 547.59 C53.45 547.59 52.09 548.07 51.01 548.89 C50.25 549.45 49.63 550.18 49.19
								 551.01 C48.76 551.84 48.52 552.77 48.52 553.76 L48.52 577.18 L54.14 577.18 L54.14 595.28 L76.06
								 595.28 L76.06 577.18 L81.9 577.18 L81.9 553.76 C81.9 552.33 81.4 551.03 80.55 549.98 C79.96 549.25
								 79.21 548.66 78.35 548.24 C77.49 547.83 76.51 547.59 75.48 547.59" class="st4"/>
					<path d="M65.21 595.28 L65.21 580.82" class="st4"/>
					<path d="M54.14 577.18 L54.14 564.71" class="st4"/>
					<path d="M76.06 577.18 L76.06 564.71" class="st4"/>
					<path d="M0 577.18 L48.52 577.18" class="st4"/>
				</g>
				<g id="shape13-91" v:mID="13" v:groupContext="shape" v:layerMember="1" transform="translate(11.9973,-48.1226)">
					<title>Sheet.13</title>
					<path d="M16.96 587.13 A8.47809 8.14849 -180 1 0 0 587.13 A8.47809 8.14849 -180 1 0 16.96 587.13 ZM39.99 587.13
								 A8.47809 8.14849 -180 1 0 23.03 587.13 A8.47809 8.14849 -180 1 0 39.99 587.13 ZM63.03 587.13 A8.47809
								 8.14849 -180 1 0 46.07 587.13 A8.47809 8.14849 -180 1 0 63.03 587.13 Z" class="st3"/>
					<path d="M16.96 587.13 A8.47809 8.14849 -180 1 0 0 587.13 A8.47809 8.14849 -180 1 0 16.96 587.13" class="st4"/>
					<path d="M39.99 587.13 A8.47809 8.14849 -180 1 0 23.03 587.13 A8.47809 8.14849 -180 1 0 39.99 587.13"
							class="st4"/>
					<path d="M63.03 587.13 A8.47809 8.14849 -180 1 0 46.07 587.13 A8.47809 8.14849 -180 1 0 63.03 587.13"
							class="st4"/>
					<path d="M50.88 579.78 L42.87 567.37" class="st4"/>
					<path d="M31.51 578.98 L31.51 570.68" class="st4"/>
					<path d="M12.14 579.78 L20.16 567.37" class="st4"/>
				</g>
				<g id="shape14-99" v:mID="14" v:groupContext="shape" v:layerMember="1" transform="translate(23.0348,-72.7218)">
					<title>Sheet.14</title>
					<ellipse cx="20.4754" cy="575.596" rx="20.4754" ry="19.6794" class="st10"/>
				</g>
			</g>
		</g>
		<g id="group26-101" transform="translate(513.175,-335.939)" v:mID="26" v:groupContext="group">
			<title>Sheet.26</title>
			<g id="group21-102" transform="translate(0,-56.8575)" v:mID="21" v:groupContext="group" v:layerMember="1">
				<v:userDefs>
					<v:ud v:nameU="visVersion" v:prompt="" v:val="VT0(15):26"/>
					<v:ud v:nameU="ConnGap" v:prompt="" v:val="VT0(0.00012908222537757):24"/>
				</v:userDefs>
				<title>Present</title>
				<g id="shape22-103" v:mID="22" v:groupContext="shape" v:layerMember="1" transform="translate(0,-46.9131)">
					<title>Sheet.22</title>
					<rect x="0" y="547.426" width="95.0643" height="47.8494" class="st1"/>
				</g>
				<g id="shape23-105" v:mID="23" v:groupContext="shape" v:layerMember="1" transform="translate(60.0626,-41.8746)">
					<title>Sheet.23</title>
					<path d="M24.77 561.94 C24.77 561.94 3.32 561.93 0 561.93 L0 567.88 L0 567.88 L8.05 567.88 C10.13 567.88 10.99
								 568.77 11.01 570.31 L11.05 595.27 L17.37 595.27 L17.37 585.54 C17.37 585.2 17.65 584.93 17.99 584.93
								 C18.33 584.93 18.6 585.2 18.6 585.54 L18.6 595.28 L24.58 595.28 L24.58 573.49 L25.81 573.49 L25.81
								 583.02 L29.48 583.02 L29.48 566.64 C29.48 564.05 27.37 561.94 24.77 561.94 ZM11.25 554.61 A6.73671
								 6.71379 -180 1 1 24.73 554.61 A6.73671 6.71379 -180 1 1 11.25 554.61 Z" class="st1"/>
				</g>
				<g id="shape24-107" v:mID="24" v:groupContext="shape" v:layerMember="1" transform="translate(1.43072,0)">
					<title>Sheet.24</title>
					<path d="M86.71 574.71 L70.15 574.71 C66.94 574.71 64.33 577.31 64.33 580.51 L64.33 595.28 L68.87 595.28 L68.87
								 587.05 L70.38 587.05 L70.38 595.28 L87.09 595.28 L87.09 587.05 L88.6 587.05 L88.6 595.28 L92.53
								 595.28 L92.53 580.51 C92.53 577.31 89.92 574.71 86.71 574.71 ZM54.55 574.71 L37.99 574.71 C34.77
								 574.71 32.17 577.31 32.17 580.51 L32.17 595.28 L36.7 595.28 L36.7 587.05 L38.21 587.05 L38.21 595.28
								 L54.92 595.28 L54.92 587.05 L56.44 587.05 L56.44 595.28 L60.37 595.28 L60.37 580.51 C60.37 577.31
								 57.75 574.71 54.55 574.71 ZM22.38 574.71 L5.82 574.71 C2.61 574.71 0 577.31 0 580.51 L0 595.28 L4.53
								 595.28 L4.53 587.05 L6.05 587.05 L6.05 595.28 L22.75 595.28 L22.75 587.05 L24.27 587.05 L24.27 595.28
								 L28.2 595.28 L28.2 580.51 C28.2 577.31 25.59 574.71 22.38 574.71 ZM70.2 565.66 A8.31865 8.28603
								 -180 1 1 86.84 565.66 A8.31865 8.28603 -180 1 1 70.2 565.66 ZM38.04 565.66 A8.3094 8.28603 -180
								 1 1 54.66 565.66 A8.3094 8.28603 -180 1 1 38.04 565.66 ZM5.88 565.66 A8.3094 8.28603 -180 1 1 22.49
								 565.66 A8.3094 8.28603 -180 1 1 5.88 565.66 Z" class="st9"/>
				</g>
			</g>
			<g id="shape25-110" v:mID="25" v:groupContext="shape">
				<title>Sheet.25</title>
				<desc>Volunteer</desc>
				<v:textBlock v:margins="rect(4,4,4,4)" v:tabSpace="42.5197"/>
				<v:textRect cx="47.5322" cy="572.533" width="95.07" height="45.486"/>
				<rect x="0" y="549.79" width="95.0643" height="45.486" class="st5"/>
				<text x="22.59" y="576.13" class="st6" v:langID="2057"><v:paragraph v:horizAlign="1"/><v:tabList/>Volunteer</text>			</g>
		</g>
		<g id="shape27-113" v:mID="27" v:groupContext="shape" v:layerMember="3" transform="translate(351.565,-298.158)">
			<title>Dynamic connector</title>
			<path d="M0 595.28 C0 566.88 0 526.41 27.89 505.16 C58.72 481.68 123.62 481.68 164.83 481.68" class="st4"/>
		</g>
		<g id="shape30-116" v:mID="30" v:groupContext="shape" v:layerMember="3" transform="translate(398.597,-498.376)">
			<title>Dynamic connector.30</title>
			<path d="M0 595.28 C9.94 656.23 -4.46 759.27 25.99 797.07 C61.69 841.39 159.04 796.01 266.68 811.97" class="st4"/>
		</g>
		<g id="shape93-119" v:mID="93" v:groupContext="shape" v:layerMember="3" transform="translate(503.668,-180.335)">
			<title>Dynamic connector.93</title>
			<desc>Present</desc>
			<v:textBlock v:margins="rect(4,4,4,4)" v:tabSpace="42.5197"/>
			<v:textRect cx="-15.2159" cy="675.844" width="40" height="17.6036"/>
			<path d="M0 595.28 C-0 620.87 0 659.8 -17.86 678.99 C-35.23 697.66 -69.48 697.66 -92.64 697.66" class="st4"/>
			<rect v:rectContext="textBkgnd" x="-27.6631" y="671.045" width="24.8942" height="9.59985" class="st11"/>
			<text x="-27.66" y="678.24" class="st12" v:langID="2057"><v:paragraph v:horizAlign="1"/><v:tabList/>Present</text>		</g>
		<g id="shape96-124" v:mID="96" v:groupContext="shape" v:layerMember="3" transform="translate(319.243,-207.525)">
			<title>Dynamic connector.96</title>
			<desc>View</desc>
			<v:textBlock v:margins="rect(4,4,4,4)" v:tabSpace="42.5197"/>
			<v:textRect cx="1.61056" cy="630.494" width="40" height="17.6036"/>
			<path d="M0 595.28 C0 609.69 0 633.56 5.21 644.25 C9.44 652.95 17.11 652.95 22.82 652.95" class="st4"/>
			<rect v:rectContext="textBkgnd" x="-6.42642" y="625.694" width="16.0738" height="9.59985" class="st11"/>
			<text x="-6.43" y="632.89" class="st12" v:langID="2057"><v:paragraph v:horizAlign="1"/><v:tabList/>View</text>		</g>
		<g id="shape16-129" v:mID="16" v:groupContext="shape" v:layerMember="2" transform="translate(275.514,-425.305)">
			<title>Text Callout</title>
			<desc>System for showing details about the centre</desc>
			<v:userDefs>
				<v:ud v:nameU="BackFillColor" v:prompt="" v:val="VT5(#96afcf)"/>
				<v:ud v:nameU="BackLineColor" v:prompt="" v:val="VT5(#1f477d)"/>
				<v:ud v:nameU="DarkerColor" v:prompt="" v:val="VT5(#000000)"/>
				<v:ud v:nameU="BackCharColor" v:prompt="" v:val="VT5(#000000)"/>
				<v:ud v:nameU="visVersion" v:prompt="" v:val="VT0(15):26"/>
				<v:ud v:nameU="msvStructureType" v:prompt="" v:val="VT4(Callout)"/>
				<v:ud v:nameU="msvSDTargetIntersection" v:prompt=""/>
				<v:ud v:nameU="msvSDCalloutNoHighlight" v:prompt="" v:val="VT0(0):5"/>
				<v:ud v:nameU="msvShapeCategories" v:prompt="" v:val="VT0(0):26"/>
				<v:ud v:nameU="Side" v:prompt="" v:val="VT0(4):26"/>
				<v:ud v:nameU="LeaderEnd" v:prompt="" v:val="VT7(PNT(6.25MM,-6.4MM)):40"/>
				<v:ud v:nameU="WHBoxIntersection" v:prompt="" v:val="VT7(PNT(10.096153846154MM,0MM)):40"/>
				<v:ud v:nameU="msvSDTargetIntersection" v:prompt="" v:val="VT7(PNT(-1.5844056696609,0.35150701982325)):40"/>
				<v:ud v:nameU="Side" v:prompt="" v:val="VT0(3):26"/>
				<v:ud v:nameU="LeaderEnd" v:prompt="" v:val="VT7(PNT(-1.5844056696609,0.35150701982325)):40"/>
				<v:ud v:nameU="WHBoxIntersection" v:prompt="" v:val="VT7(PNT(0,0.27564747295125)):40"/>
			</v:userDefs>
			<v:textBlock v:margins="rect(4,4,4,4)" v:tabSpace="42.5197"/>
			<v:textRect cx="59.2901" cy="578.268" width="118.59" height="32.0037"/>
			<path d="M0 575.43 L-114.08 569.97" class="st4"/>
			<text x="4" y="575.27" class="st7" v:langID="2057"><v:paragraph/><v:tabList/>System for showing details <tspan x="4"
						dy="1.2em" class="st8">about the centre</tspan></text>		</g>
		<g id="shape17-134" v:mID="17" v:groupContext="shape" v:layerMember="2" transform="translate(275.514,-279.014)">
			<title>Text Callout.17</title>
			<desc>Used by my volunteers</desc>
			<v:userDefs>
				<v:ud v:nameU="BackFillColor" v:prompt="" v:val="VT5(#96afcf)"/>
				<v:ud v:nameU="BackLineColor" v:prompt="" v:val="VT5(#1f477d)"/>
				<v:ud v:nameU="DarkerColor" v:prompt="" v:val="VT5(#000000)"/>
				<v:ud v:nameU="BackCharColor" v:prompt="" v:val="VT5(#000000)"/>
				<v:ud v:nameU="visVersion" v:prompt="" v:val="VT0(15):26"/>
				<v:ud v:nameU="msvStructureType" v:prompt="" v:val="VT4(Callout)"/>
				<v:ud v:nameU="msvSDTargetIntersection" v:prompt=""/>
				<v:ud v:nameU="msvSDCalloutNoHighlight" v:prompt="" v:val="VT0(0):5"/>
				<v:ud v:nameU="msvShapeCategories" v:prompt="" v:val="VT0(0):26"/>
				<v:ud v:nameU="Side" v:prompt="" v:val="VT0(4):26"/>
				<v:ud v:nameU="LeaderEnd" v:prompt="" v:val="VT7(PNT(6.25MM,-6.4MM)):40"/>
				<v:ud v:nameU="WHBoxIntersection" v:prompt="" v:val="VT7(PNT(10.096153846154MM,0MM)):40"/>
				<v:ud v:nameU="msvSDTargetIntersection" v:prompt="" v:val="VT7(PNT(-1.5844056404612,1.8037731355558)):40"/>
				<v:ud v:nameU="Side" v:prompt="" v:val="VT0(3):26"/>
				<v:ud v:nameU="LeaderEnd" v:prompt="" v:val="VT7(PNT(-1.5844056404612,1.8037731355558)):40"/>
				<v:ud v:nameU="WHBoxIntersection" v:prompt="" v:val="VT7(PNT(0,8MM)):40"/>
			</v:userDefs>
			<v:textBlock v:margins="rect(4,4,4,4)" v:tabSpace="42.5197"/>
			<v:textRect cx="61.5416" cy="583.937" width="123.09" height="20.0036"/>
			<path d="M0 572.6 L-114.08 465.4" class="st4"/>
			<text x="4" y="586.94" class="st7" v:langID="2057"><v:paragraph/><v:tabList/>Used by my volunteers</text>		</g>
		<g id="shape19-138" v:mID="19" v:groupContext="shape" v:layerMember="2" transform="translate(170.943,-204.524)">
			<title>Text Callout.19</title>
			<desc>I want it to have a map showing information about the nature ...</desc>
			<v:userDefs>
				<v:ud v:nameU="BackFillColor" v:prompt="" v:val="VT5(#96afcf)"/>
				<v:ud v:nameU="BackLineColor" v:prompt="" v:val="VT5(#1f477d)"/>
				<v:ud v:nameU="DarkerColor" v:prompt="" v:val="VT5(#000000)"/>
				<v:ud v:nameU="BackCharColor" v:prompt="" v:val="VT5(#000000)"/>
				<v:ud v:nameU="visVersion" v:prompt="" v:val="VT0(15):26"/>
				<v:ud v:nameU="msvStructureType" v:prompt="" v:val="VT4(Callout)"/>
				<v:ud v:nameU="msvSDTargetIntersection" v:prompt=""/>
				<v:ud v:nameU="msvSDCalloutNoHighlight" v:prompt="" v:val="VT0(0):5"/>
				<v:ud v:nameU="msvShapeCategories" v:prompt="" v:val="VT0(0):26"/>
				<v:ud v:nameU="Side" v:prompt="" v:val="VT0(4):26"/>
				<v:ud v:nameU="LeaderEnd" v:prompt="" v:val="VT7(PNT(6.25MM,-6.4MM)):40"/>
				<v:ud v:nameU="WHBoxIntersection" v:prompt="" v:val="VT7(PNT(10.096153846154MM,0MM)):40"/>
				<v:ud v:nameU="msvSDTargetIntersection" v:prompt="" v:val="VT7(PNT(-0.16466074335572,2.284627431771)):40"/>
				<v:ud v:nameU="Side" v:prompt="" v:val="VT0(2):26"/>
				<v:ud v:nameU="LeaderEnd" v:prompt="" v:val="VT7(PNT(-0.16466074335572,2.284627431771)):40"/>
				<v:ud v:nameU="WHBoxIntersection" v:prompt="" v:val="VT7(PNT(0,0.47244094488189)):40"/>
			</v:userDefs>
			<v:textBlock v:margins="rect(4,4,4,4)" v:tabSpace="42.5197"/>
			<v:textRect cx="99.8176" cy="578.268" width="199.64" height="32.0037"/>
			<path d="M0 561.26 L-11.86 430.78" class="st4"/>
			<text x="9.85" y="575.27" class="st7" v:langID="2057"><v:paragraph v:horizAlign="1"/><v:tabList/>I want it to have a map showing information <tspan
						x="48.96" dy="1.2em" class="st8">about the nature reserve</tspan></text>		</g>
		<g id="shape20-143" v:mID="20" v:groupContext="shape" v:layerMember="2" transform="translate(332.552,-508.558)">
			<title>Text Callout.20</title>
			<desc>I need a good database to store lots of different info</desc>
			<v:userDefs>
				<v:ud v:nameU="BackFillColor" v:prompt="" v:val="VT5(#96afcf)"/>
				<v:ud v:nameU="BackLineColor" v:prompt="" v:val="VT5(#1f477d)"/>
				<v:ud v:nameU="DarkerColor" v:prompt="" v:val="VT5(#000000)"/>
				<v:ud v:nameU="BackCharColor" v:prompt="" v:val="VT5(#000000)"/>
				<v:ud v:nameU="visVersion" v:prompt="" v:val="VT0(15):26"/>
				<v:ud v:nameU="msvStructureType" v:prompt="" v:val="VT4(Callout)"/>
				<v:ud v:nameU="msvSDTargetIntersection" v:prompt=""/>
				<v:ud v:nameU="msvSDCalloutNoHighlight" v:prompt="" v:val="VT0(0):5"/>
				<v:ud v:nameU="msvShapeCategories" v:prompt="" v:val="VT0(0):26"/>
				<v:ud v:nameU="Side" v:prompt="" v:val="VT0(4):26"/>
				<v:ud v:nameU="LeaderEnd" v:prompt="" v:val="VT7(PNT(6.25MM,-6.4MM)):40"/>
				<v:ud v:nameU="WHBoxIntersection" v:prompt="" v:val="VT7(PNT(10.096153846154MM,0MM)):40"/>
				<v:ud v:nameU="msvSDTargetIntersection" v:prompt="" v:val="VT7(PNT(-2.8402980977869,-0.65006285829359)):40"/>
				<v:ud v:nameU="Side" v:prompt="" v:val="VT0(3):26"/>
				<v:ud v:nameU="LeaderEnd" v:prompt="" v:val="VT7(PNT(-2.8402980977869,-0.65006285829359)):40"/>
				<v:ud v:nameU="WHBoxIntersection" v:prompt="" v:val="VT7(PNT(0,0)):40"/>
			</v:userDefs>
			<v:textBlock v:margins="rect(4,4,4,4)" v:tabSpace="42.5197"/>
			<v:textRect cx="61.5416" cy="578.268" width="123.09" height="32.0037"/>
			<path d="M0 595.28 L-204.5 642.08" class="st4"/>
			<text x="4" y="575.27" class="st7" v:langID="2057"><v:paragraph/><v:tabList/>I need a good database to <tspan x="4"
						dy="1.2em" class="st8">store lots of different info</tspan></text>		</g>
		<g id="shape28-148" v:mID="28" v:groupContext="shape" v:layerMember="2" transform="translate(427.617,-190.517)">
			<title>Text Callout.28</title>
			<desc>I want to present information in an engaging way</desc>
			<v:userDefs>
				<v:ud v:nameU="BackFillColor" v:prompt="" v:val="VT5(#96afcf)"/>
				<v:ud v:nameU="BackLineColor" v:prompt="" v:val="VT5(#1f477d)"/>
				<v:ud v:nameU="DarkerColor" v:prompt="" v:val="VT5(#000000)"/>
				<v:ud v:nameU="BackCharColor" v:prompt="" v:val="VT5(#000000)"/>
				<v:ud v:nameU="visVersion" v:prompt="" v:val="VT0(15):26"/>
				<v:ud v:nameU="msvStructureType" v:prompt="" v:val="VT4(Callout)"/>
				<v:ud v:nameU="msvSDTargetIntersection" v:prompt=""/>
				<v:ud v:nameU="msvSDCalloutNoHighlight" v:prompt="" v:val="VT0(0):5"/>
				<v:ud v:nameU="msvShapeCategories" v:prompt="" v:val="VT0(0):26"/>
				<v:ud v:nameU="Side" v:prompt="" v:val="VT0(4):26"/>
				<v:ud v:nameU="LeaderEnd" v:prompt="" v:val="VT7(PNT(6.25MM,-6.4MM)):40"/>
				<v:ud v:nameU="WHBoxIntersection" v:prompt="" v:val="VT7(PNT(10.096153846154MM,0MM)):40"/>
				<v:ud v:nameU="msvSDTargetIntersection" v:prompt="" v:val="VT7(PNT(1.5053875026034,2.0197495554912)):40"/>
				<v:ud v:nameU="Side" v:prompt="" v:val="VT0(2):26"/>
				<v:ud v:nameU="LeaderEnd" v:prompt="" v:val="VT7(PNT(1.5053875026034,2.0197495554912)):40"/>
				<v:ud v:nameU="WHBoxIntersection" v:prompt="" v:val="VT7(PNT(1.0012074803477,0.47244094488189)):40"/>
			</v:userDefs>
			<v:textBlock v:margins="rect(4,4,4,4)" v:tabSpace="42.5197"/>
			<v:textRect cx="66.545" cy="578.268" width="133.1" height="32.0037"/>
			<path d="M72.09 561.26 L108.39 449.85" class="st4"/>
			<text x="6.42" y="575.27" class="st7" v:langID="2057"><v:paragraph v:horizAlign="1"/><v:tabList/>I want to present information <tspan
						x="27.78" dy="1.2em" class="st8">in an engaging way</tspan></text>		</g>
		<g id="shape29-153" v:mID="29" v:groupContext="shape" v:layerMember="2" transform="translate(665.278,-266.32)">
			<title>Text Callout.29</title>
			<desc>I want to keep information about our ospreys</desc>
			<v:userDefs>
				<v:ud v:nameU="BackFillColor" v:prompt="" v:val="VT5(#96afcf)"/>
				<v:ud v:nameU="BackLineColor" v:prompt="" v:val="VT5(#1f477d)"/>
				<v:ud v:nameU="DarkerColor" v:prompt="" v:val="VT5(#000000)"/>
				<v:ud v:nameU="BackCharColor" v:prompt="" v:val="VT5(#000000)"/>
				<v:ud v:nameU="visVersion" v:prompt="" v:val="VT0(15):26"/>
				<v:ud v:nameU="msvStructureType" v:prompt="" v:val="VT4(Callout)"/>
				<v:ud v:nameU="msvSDTargetIntersection" v:prompt=""/>
				<v:ud v:nameU="msvSDCalloutNoHighlight" v:prompt="" v:val="VT0(0):5"/>
				<v:ud v:nameU="msvShapeCategories" v:prompt="" v:val="VT0(0):26"/>
				<v:ud v:nameU="Side" v:prompt="" v:val="VT0(4):26"/>
				<v:ud v:nameU="LeaderEnd" v:prompt="" v:val="VT7(PNT(6.25MM,-6.4MM)):40"/>
				<v:ud v:nameU="WHBoxIntersection" v:prompt="" v:val="VT7(PNT(10.096153846154MM,0MM)):40"/>
				<v:ud v:nameU="msvSDTargetIntersection" v:prompt="" v:val="VT7(PNT(-0.79220290505362,1.5377908740248)):40"/>
				<v:ud v:nameU="Side" v:prompt="" v:val="VT0(3):26"/>
				<v:ud v:nameU="LeaderEnd" v:prompt="" v:val="VT7(PNT(-0.79220290505362,1.5377908740248)):40"/>
				<v:ud v:nameU="WHBoxIntersection" v:prompt="" v:val="VT7(PNT(0,0.47244094488189)):40"/>
			</v:userDefs>
			<v:textBlock v:margins="rect(4,4,4,4)" v:tabSpace="42.5197"/>
			<v:textRect cx="71.2983" cy="578.268" width="142.6" height="32.0037"/>
			<path d="M0 561.26 L-57.04 484.55" class="st4"/>
			<text x="4" y="575.27" class="st7" v:langID="2057"><v:paragraph/><v:tabList/>I want to keep information <tspan x="4"
						dy="1.2em" class="st8">about our ospreys</tspan></text>		</g>
		<g id="shape31-158" v:mID="31" v:groupContext="shape" v:layerMember="2" transform="translate(665.278,-176.51)">
			<title>Text Callout.31</title>
			<desc>I may not be technically trained, I want a user-friendly inte...</desc>
			<v:userDefs>
				<v:ud v:nameU="BackFillColor" v:prompt="" v:val="VT5(#96afcf)"/>
				<v:ud v:nameU="BackLineColor" v:prompt="" v:val="VT5(#1f477d)"/>
				<v:ud v:nameU="DarkerColor" v:prompt="" v:val="VT5(#000000)"/>
				<v:ud v:nameU="BackCharColor" v:prompt="" v:val="VT5(#000000)"/>
				<v:ud v:nameU="visVersion" v:prompt="" v:val="VT0(15):26"/>
				<v:ud v:nameU="msvStructureType" v:prompt="" v:val="VT4(Callout)"/>
				<v:ud v:nameU="msvSDTargetIntersection" v:prompt=""/>
				<v:ud v:nameU="msvSDCalloutNoHighlight" v:prompt="" v:val="VT0(0):5"/>
				<v:ud v:nameU="msvShapeCategories" v:prompt="" v:val="VT0(0):26"/>
				<v:ud v:nameU="Side" v:prompt="" v:val="VT0(4):26"/>
				<v:ud v:nameU="LeaderEnd" v:prompt="" v:val="VT7(PNT(6.25MM,-6.4MM)):40"/>
				<v:ud v:nameU="WHBoxIntersection" v:prompt="" v:val="VT7(PNT(10.096153846154MM,0MM)):40"/>
				<v:ud v:nameU="msvSDTargetIntersection" v:prompt="" v:val="VT7(PNT(-0.79220290505362,2.4480220331924)):40"/>
				<v:ud v:nameU="Side" v:prompt="" v:val="VT0(2):26"/>
				<v:ud v:nameU="LeaderEnd" v:prompt="" v:val="VT7(PNT(-0.79220290505362,2.4480220331924)):40"/>
				<v:ud v:nameU="WHBoxIntersection" v:prompt="" v:val="VT7(PNT(0,0.47244094488189)):40"/>
			</v:userDefs>
			<v:textBlock v:margins="rect(4,4,4,4)" v:tabSpace="42.5197"/>
			<v:textRect cx="71.2983" cy="578.268" width="142.6" height="32.0037"/>
			<path d="M0 561.26 L-57.04 419.02" class="st4"/>
			<text x="5.99" y="575.27" class="st7" v:langID="2057"><v:paragraph v:horizAlign="1"/><v:tabList/>I may not be technically trained, <tspan
						x="8.73" dy="1.2em" class="st8">I want a user</tspan>-friendly interface</text>		</g>
		<g id="shape94-163" v:mID="94" v:groupContext="shape" v:layerMember="2" transform="translate(35.529,-109.771)">
			<title>Text Callout.94</title>
			<desc>I want to be able to see the Ospreys live on a webcam.</desc>
			<v:userDefs>
				<v:ud v:nameU="BackFillColor" v:prompt="" v:val="VT5(#96afcf)"/>
				<v:ud v:nameU="BackLineColor" v:prompt="" v:val="VT5(#1f477d)"/>
				<v:ud v:nameU="DarkerColor" v:prompt="" v:val="VT5(#000000)"/>
				<v:ud v:nameU="BackCharColor" v:prompt="" v:val="VT5(#000000)"/>
				<v:ud v:nameU="visVersion" v:prompt="" v:val="VT0(15):26"/>
				<v:ud v:nameU="msvStructureType" v:prompt="" v:val="VT4(Callout)"/>
				<v:ud v:nameU="msvSDTargetIntersection" v:prompt=""/>
				<v:ud v:nameU="msvSDCalloutNoHighlight" v:prompt="" v:val="VT0(0):5"/>
				<v:ud v:nameU="msvShapeCategories" v:prompt="" v:val="VT0(0):26"/>
				<v:ud v:nameU="Side" v:prompt="" v:val="VT0(4):26"/>
				<v:ud v:nameU="LeaderEnd" v:prompt="" v:val="VT7(PNT(6.25MM,-6.4MM)):40"/>
				<v:ud v:nameU="WHBoxIntersection" v:prompt="" v:val="VT7(PNT(10.096153846154MM,0MM)):40"/>
				<v:ud v:nameU="msvSDTargetIntersection" v:prompt="" v:val="VT7(PNT(2.8270775007414,0.19863591911721)):40"/>
				<v:ud v:nameU="Side" v:prompt="" v:val="VT0(1):26"/>
				<v:ud v:nameU="LeaderEnd" v:prompt="" v:val="VT7(PNT(2.8270775007414,0.19863591911721)):40"/>
				<v:ud v:nameU="WHBoxIntersection" v:prompt="" v:val="VT7(PNT(1.9384647909774,0.21661272013245)):40"/>
			</v:userDefs>
			<v:textBlock v:margins="rect(4,4,4,4)" v:tabSpace="42.5197"/>
			<v:textRect cx="69.7847" cy="578.268" width="139.57" height="32.0037"/>
			<path d="M139.57 579.68 L203.55 580.97" class="st4"/>
			<text x="4" y="575.27" class="st7" v:langID="2057"><v:paragraph/><v:tabList/>I want to be able to see the <tspan x="4"
						dy="1.2em" class="st8">Ospreys live on a webcam.</tspan></text>		</g>
		<g id="shape95-168" v:mID="95" v:groupContext="shape" v:layerMember="2" transform="translate(342.059,-127.074)">
			<title>Text Callout.95</title>
			<desc>I want to see where things around me are</desc>
			<v:userDefs>
				<v:ud v:nameU="BackFillColor" v:prompt="" v:val="VT5(#96afcf)"/>
				<v:ud v:nameU="BackLineColor" v:prompt="" v:val="VT5(#1f477d)"/>
				<v:ud v:nameU="DarkerColor" v:prompt="" v:val="VT5(#000000)"/>
				<v:ud v:nameU="BackCharColor" v:prompt="" v:val="VT5(#000000)"/>
				<v:ud v:nameU="visVersion" v:prompt="" v:val="VT0(15):26"/>
				<v:ud v:nameU="msvStructureType" v:prompt="" v:val="VT4(Callout)"/>
				<v:ud v:nameU="msvSDTargetIntersection" v:prompt=""/>
				<v:ud v:nameU="msvSDCalloutNoHighlight" v:prompt="" v:val="VT0(0):5"/>
				<v:ud v:nameU="msvShapeCategories" v:prompt="" v:val="VT0(0):26"/>
				<v:ud v:nameU="Side" v:prompt="" v:val="VT0(4):26"/>
				<v:ud v:nameU="LeaderEnd" v:prompt="" v:val="VT7(PNT(6.25MM,-6.4MM)):40"/>
				<v:ud v:nameU="WHBoxIntersection" v:prompt="" v:val="VT7(PNT(10.096153846154MM,0MM)):40"/>
				<v:ud v:nameU="msvSDTargetIntersection" v:prompt="" v:val="VT7(PNT(-0.72991073736536,0.0053204585270943)):40"/>
				<v:ud v:nameU="Side" v:prompt="" v:val="VT0(3):26"/>
				<v:ud v:nameU="LeaderEnd" v:prompt="" v:val="VT7(PNT(-0.72991073736536,0.0053204585270943)):40"/>
				<v:ud v:nameU="WHBoxIntersection" v:prompt="" v:val="VT7(PNT(0,0.11144297259327)):40"/>
			</v:userDefs>
			<v:textBlock v:margins="rect(4,4,4,4)" v:tabSpace="42.5197"/>
			<v:textRect cx="61.7918" cy="578.268" width="123.59" height="32.0037"/>
			<path d="M0 587.25 L-52.55 594.89" class="st4"/>
			<text x="4" y="575.27" class="st7" v:langID="2057"><v:paragraph/><v:tabList/>I want to see where things <tspan x="4"
						dy="1.2em" class="st8">around me are</tspan></text>		</g>
	</g>
</svg>
